<svg id="Layer_1" height="512" viewBox="0 0 68 68" width="512" xmlns="http://www.w3.org/2000/svg" data-name="Layer 1"><path d="m65.65 28.59a3.33 3.33 0 0 1 0 4.71 3.37 3.37 0 0 1 -2.36 1 3.28 3.28 0 0 1 -3.29-3.3 3.5 3.5 0 0 1 .38-1.53l-20.53-20.53a3.43 3.43 0 0 1 -1.52.39 3.31 3.31 0 0 1 -3.33-3.33 3.38 3.38 0 0 1 1-2.36 3.3 3.3 0 0 1 2.33-1 3.26 3.26 0 0 1 2.35 1 3.31 3.31 0 0 1 .59 3.9l20.47 20.46a3.5 3.5 0 0 1 1.54-.38 3.29 3.29 0 0 1 2.37.97z"/><path d="m22.65 60a3.35 3.35 0 0 1 0 4.74 3.31 3.31 0 0 1 -2.33 1 3.31 3.31 0 0 1 -3.32-3.35 3.25 3.25 0 0 1 .38-1.54l-11.5-11.45a3.25 3.25 0 0 1 -1.54.38 3.32 3.32 0 0 1 -2.34-5.67 3.32 3.32 0 0 1 5.29 3.89l11.46 11.44a3.42 3.42 0 0 1 1.52-.38 3.31 3.31 0 0 1 2.38.94z"/><path d="m32.06 59.63a3.36 3.36 0 0 1 -2.37 5.71 3.32 3.32 0 0 1 -2.93-4.88l-20.49-20.46a3.25 3.25 0 0 1 -1.54.38 3.32 3.32 0 0 1 -2.37-5.68 3.36 3.36 0 0 1 4.74 0 3.31 3.31 0 0 1 .57 3.9s0 0 0 0l20.48 20.45a3.36 3.36 0 0 1 3.91.58z"/><path d="m33 49.72a3.36 3.36 0 0 1 -2.37 5.71 3.3 3.3 0 0 1 -3.31-3.34 3.21 3.21 0 0 1 .38-1.53l-11.53-11.46a3.21 3.21 0 0 1 -1.53.38 3.32 3.32 0 0 1 -2.35-5.67 3.33 3.33 0 0 1 5.32 3.88l11.39 11.45a3.5 3.5 0 0 1 1.53-.38 3.28 3.28 0 0 1 2.47.96z"/><path d="m35.28 40.24a3.29 3.29 0 0 1 1 2.38 3.35 3.35 0 0 1 -1 2.35 3.32 3.32 0 0 1 -2.34 1 3.31 3.31 0 0 1 -2.94-4.9l-4.29-4.29a3.5 3.5 0 0 1 -1.54.38 3.33 3.33 0 0 1 -2.34-5.68 3.33 3.33 0 0 1 2.35-1 3.3 3.3 0 0 1 3 4.86l4.3 4.31a3.37 3.37 0 0 1 1.53-.39 3.29 3.29 0 0 1 2.27.98z"/><path d="m36.45 31.76a3.35 3.35 0 1 1 -4.74 0 3.36 3.36 0 0 1 4.74 0z"/><path d="m46.25 31.81a3.32 3.32 0 0 1 0 4.7 3.36 3.36 0 0 1 -2.35 1 3.31 3.31 0 0 1 -2.91-4.87l-4.3-4.3a3.5 3.5 0 0 1 -1.53.38 3.28 3.28 0 0 1 -2.34-1 3.36 3.36 0 0 1 2.37-5.71 3.31 3.31 0 0 1 3.32 3.34 3.55 3.55 0 0 1 -.38 1.55l4.28 4.28a3.32 3.32 0 0 1 3.84.63z"/><path d="m45.35 8a3.35 3.35 0 0 1 0-4.73 3.25 3.25 0 0 1 2.33-1 3.08 3.08 0 0 1 2.37 1 3.28 3.28 0 0 1 1 2.37 3.41 3.41 0 0 1 -.37 1.52l11.46 11.43a3.22 3.22 0 0 1 1.54-.38 3.31 3.31 0 0 1 2.35 1 3.35 3.35 0 0 1 -2.36 5.7 3.28 3.28 0 0 1 -3.3-3.34 3.41 3.41 0 0 1 .36-1.57l-11.45-11.46a3.39 3.39 0 0 1 -1.54.4h-.05a3.28 3.28 0 0 1 -2.34-.94z"/><path d="m55.74 29.48a3.32 3.32 0 0 1 0 4.7 3.38 3.38 0 0 1 -2.36 1 3.28 3.28 0 0 1 -2.34-1 3.31 3.31 0 0 1 -1-2.39 3.46 3.46 0 0 1 .38-1.53l-11.42-11.41a3.42 3.42 0 0 1 -1.52.38 3.28 3.28 0 0 1 -2.34-1 3.35 3.35 0 0 1 4.73-4.74 3.29 3.29 0 0 1 1 2.37 3.25 3.25 0 0 1 -.38 1.54l11.34 11.49a3.5 3.5 0 0 1 1.54-.38 3.29 3.29 0 0 1 2.37.97z"/></svg>